# xmcd
#
# Track frame offsets:
#	150
#	26006
#	43082
#	66559
#	81510
#	93345
#	106135
#	122135
#	143235
#	155591
#	167090
#	181705
#	199434
#	217205
#	237373
#	254854
#	278761
#
# Disc length: 3846
#
# Revision: 4
# Processed by: cddbd v1.5.1PL0 Copyright (c) Steve Scherf et al.
# Submitted via: Grip 2.9
# Normalized: r3:DSETVAR1
#
DISCID=090f0411
DTITLE=Various Artist - Pearls In The Snow, The Songs of Kinky Friedman
DYEAR=1900
DGENRE=
TTITLE0=Willie Nelson - Ride 'em Jewboy
TTITLE1=Delbert McClinton - Autograph
TTITLE2=Lee Roy Parnell - Nashville Casualty and Life
TTITLE3=Asleep At The Wheel - Before All Hell Breaks Loose
TTITLE4=The Geezinslaws - Twirl
TTITLE5=Dwight Yoakam - Rapid City, South Dakaota
TTITLE6=Guy Clark - Wild Man From Borneo
TTITLE7=Marty Stuart - Lady Yesterday
TTITLE8=Tompall Glaser - Get Your Biscuits in the Oven
TTITLE9=Chuck E. Weis - Ol' Ben Lucas
TTITLE10=Kinky Friedman - Marilyn and Joe
TTITLE11=Billy Swan - When The Lord Closes the Door
TTITLE12=Lyle Lovett - Sold American
TTITLE13=The Texas Jewboys - Medley
TTITLE14=The Texas Jewboys - Silver Eagle Express
TTITLE15=Tom Waits - Highway Cafe
TTITLE16=Kinky and Little Jewford - You're Welcome, Kinky
EXTD=
EXTT0=
EXTT1=
EXTT2=
EXTT3=
EXTT4=
EXTT5=
EXTT6=
EXTT7=
EXTT8=
EXTT9=
EXTT10=
EXTT11=
EXTT12=
EXTT13=
EXTT14=
EXTT15=
EXTT16=
PLAYORDER=
